<svg width="40" height="40" viewBox="0 0 40 40" fill="none" xmlns="http://www.w3.org/2000/svg">
<path fill-rule="evenodd" clip-rule="evenodd" d="M10.4037 20.0864C11.1464 19.8738 11.5007 20.3625 11.969 20.6977C16.5803 23.9991 14.9885 24.3522 20.81 18.3354L27.617 11.3458C28.0763 10.8761 29.3117 9.29501 30.1976 9.27888C30.9456 9.2653 31.2593 9.89094 30.9911 10.5907L17.6979 27.2532C17.3167 27.7165 17.0168 28.0649 16.6684 28.5284C15.0379 30.6976 14.3667 28.2465 12.566 24.8978C11.8347 23.5378 10.183 21.0287 10.4037 20.0863L10.4037 20.0864ZM39.8585 20.4973C40.4844 17.2719 38.9256 14.7503 37.3064 13.2098C35.5229 11.513 36.5552 11.8296 36.1072 9.31161C35.4099 5.3928 32.3417 2.66975 27.578 3.21916C24.8405 3.53489 25.1175 0.612458 20.9222 0.0577776C19.3788 -0.1463 17.896 0.209155 16.7483 0.826242C15.3903 1.55639 14.8687 2.57721 13.8961 3.025C12.4968 3.66924 9.10379 2.07259 6.25606 4.97898C2.83659 8.46891 4.31233 10.5245 3.80359 12.5432C3.5633 13.4967 2.09986 14.4565 1.49854 15.3184C-1.16986 19.1431 -0.0252312 23.2167 2.97042 26.0368C4.88872 27.8427 2.61695 29.835 5.6252 33.3997C8.3342 36.6097 10.8809 35.7547 12.9176 35.7663C14.2357 35.7739 15.1278 37.1081 15.9686 37.7098C18.3079 39.384 21.2461 39.4209 23.638 37.9995C24.8042 37.3064 25.5731 36.0103 26.3961 35.7117C27.4271 35.3377 29.069 36.1572 30.7333 35.9021C34.4799 35.3279 37.4117 31.7814 36.9173 27.3955C36.5472 24.1117 38.9859 24.9932 39.8585 20.4974V20.4973Z" fill="black"/>
<path fill-rule="evenodd" clip-rule="evenodd" d="M10.4034 20.086C10.1827 21.0283 11.8344 23.5375 12.5657 24.8974C14.3664 28.2462 15.0376 30.6973 16.6681 28.528C17.0165 28.0645 17.3164 27.7161 17.6976 27.2528L30.9909 10.5903C31.2591 9.89056 30.9453 9.26492 30.1973 9.27854C29.3115 9.29467 28.076 10.8758 27.6167 11.3455L20.8097 18.3351C14.9883 24.3519 16.5801 23.9988 11.9687 20.6974C11.5005 20.3621 11.1461 19.8734 10.4034 20.086L10.4034 20.086Z" fill="white"/>
</svg>
